# xmcd CD database file
#
# Track frame offsets:
#	150
#	8157
#	15125
#	33255
#	45637
#	60755
#	84720
#	98957
#	108955
#	115945
#	133635
#	159220
#	166315
#	180435
#	191485
#	199557
#
# Disc length: 2906 seconds
#
# Revision: 2
# Processed by: cddbd v1.4PL0 Copyright (c) Steve Scherf et al.
# Submitted via: CDex 1.50Beta6
#
DISCID=b20b5810
DTITLE=Sothern Culture on the Skids - Live at El Sol
DYEAR=1900
DGENRE=Country
TTITLE0=run chicken run
TTITLE1=chicken shit farmer
TTITLE2=green back fly
TTITLE3=soul city
TTITLE4=firefly
TTITLE5=biscuit eater
TTITLE6=house of bamboo
TTITLE7=dance for me
TTITLE8=santo strips
TTITLE9=8 piece box
TTITLE10=viva dela santo
TTITLE11=rumble
TTITLE12=shotgun
TTITLE13=camel walk
TTITLE14=the sweeper
TTITLE15=new cooter boogie
EXTD=
EXTT0=
EXTT1=
EXTT2=
EXTT3=
EXTT4=
EXTT5=
EXTT6=
EXTT7=
EXTT8=
EXTT9=
EXTT10=
EXTT11=
EXTT12=
EXTT13=
EXTT14=
EXTT15=
PLAYORDER=
